<svg height="512" viewBox="0 0 56 58" width="512" xmlns="http://www.w3.org/2000/svg"><g id="Page-1" fill="none" fill-rule="evenodd"><g id="036---Spare-Tyre-Swap" fill="rgb(0,0,0)" fill-rule="nonzero"><path id="Shape" d="m13 17c0-.08 0-.16 0-.24l-5.77-1.88c-.15323774.6962484-.23035714 1.407088-.23 2.12.00525233 2.8469823 1.22374227 5.5567584 3.35 7.45l3.58-4.92c-.5933737-.7103374-.9220465-1.6044686-.93-2.53z"/><path id="Shape" d="m26.77 14.88-5.77 1.88v.24c-.0079535.9255314-.3366263 1.8196626-.93 2.53l3.58 4.92c2.1262577-1.8932416 3.3447477-4.6030177 3.35-7.45.0003571-.712912-.0767623-1.4237516-.23-2.12z"/><path id="Shape" d="m17 21c-.5007218-.0025316-.9963219-.1009727-1.46-.29l-3.54 4.92c3.1046363 1.8264328 6.9553637 1.8264328 10.06 0l-3.57-4.92c-.4730275.1928251-.9791823.2913384-1.49.29z"/><path id="Shape" d="m16 13.14v-6.09c-3.5915348.36676497-6.70654202 2.64091136-8.15 5.95l5.79 1.88c.5380692-.8578087 1.3814508-1.479624 2.36-1.74z"/><path id="Shape" d="m20.36 14.86 5.79-1.86c-1.443458-3.30908864-4.5584652-5.58323503-8.15-5.95v6.09c.9753197.2554225 1.818211.8697331 2.36 1.72z"/><circle id="Oval" cx="17" cy="17" r="2"/><path id="Shape" d="m43 42c-.0079535.9255314-.3366263 1.8196626-.93 2.53l3.58 4.92c2.1262577-1.8932416 3.3447477-4.6030177 3.35-7.45.0003571-.712912-.0767623-1.4237516-.23-2.12l-5.77 1.88z"/><path id="Shape" d="m38 38.14v-6.09c-3.5915348.366765-6.706542 2.6409114-8.15 5.95l5.79 1.88c.5380692-.8578087 1.3814508-1.479624 2.36-1.74z"/><path id="Shape" d="m32.35 49.45 3.58-4.92c-.5933737-.7103374-.9220465-1.6044686-.93-2.53 0-.08 0-.16 0-.24l-5.79-1.88c-.1465164.6969843-.2169289 1.4078159-.21 2.12.0052523 2.8469823 1.2237423 5.5567584 3.35 7.45z"/><circle id="Oval" cx="39" cy="42" r="2"/><path id="Shape" d="m22.19 33.18c.1-.2.21-.39.32-.58.0030931-.0332616.0030931-.0667384 0-.1l.09-.09c1.6432013-2.802468 3.977532-5.1367987 6.78-6.78.0250012-.0318091.0554791-.0589005.09-.08h.09c.8923085-.5004709 1.8217031-.9317367 2.78-1.29.9406731-1.9608309 1.4844301-4.0882801 1.6-6.26h-.94c-.5522847 0-1-.4477153-1-1s.4477153-1 1-1h1c-.1328111-2.301023-.7351714-4.5505157-1.77-6.61l-.82.48c-.4804877.2761424-1.0938576.1104877-1.37-.37000002-.2761423-.48048772-.1104877-1.09385759.37-1.36999998l.83-.48c-1.2719342-1.92199165-2.9180083-3.56806579-4.84-4.84l-.48.83c-.1786328.31082108-.5095174.50273214-.8680127.50344214-.3584954.00070999-.6901375-.18988894-.87-.50000002-.1798626-.31011108-.1806201-.69262106-.0019873-1.00344212l.48-.82c-2.0747689-1.04142754-4.3419506-1.64396682-6.66-1.77v.95c0 .55228475-.4477153 1-1 1s-1-.44771525-1-1v-1c-2.301023.13281105-4.5505157.73517142-6.61 1.77l.48.82c.2761424.48048773.11048773 1.09385763-.37 1.37s-1.09385763.11048773-1.37-.37l-.48-.83c-1.92691159 1.28653849-3.57333275 2.94996813-4.84 4.89l.83.48c.48048773.27614237.64614237.88951227.37 1.37s-.88951227.6461424-1.37.37l-.82-.48c-1.03482858 2.0594843-1.63718895 4.308977-1.77 6.61h.95c.55228475 0 1 .4477153 1 1s-.44771525 1-1 1h-1c.13281105 2.301023.73517142 4.5505157 1.77 6.61l.82-.48c.48048773-.2761423 1.09385759-.1104877 1.36999996.37s.11048774 1.0938576-.36999996 1.37l-.83.48c1.27193421 1.9219917 2.91800835 3.5680658 4.84 4.84l.48-.83c.27614239-.4804877.88951226-.6461423 1.36999998-.37.48048772.2761424.64614242.8895123.37000002 1.37l-.48.82c2.0710004 1.058775 4.3383643 1.678385 6.66 1.82v-1c0-.5522847.4477153-1 1-1s1 .4477153 1 1v1c1.4259411-.0933752 2.8340575-.3689493 4.19-.82zm-5.19-4.18c-6.627417 0-12-5.372583-12-12s5.372583-12 12-12 12 5.372583 12 12c0 3.1825979-1.2642821 6.2348448-3.5147186 8.4852814-2.2504366 2.2504365-5.3026835 3.5147186-8.4852814 3.5147186z"/><path id="Shape" d="m39 46c-.5007218-.0025316-.9963219-.1009727-1.46-.29l-3.54 4.92c3.1046363 1.8264328 6.9553637 1.8264328 10.06 0l-3.57-4.92c-.4730275.1928251-.9791823.2913384-1.49.29z"/><path id="Shape" d="m42.36 39.86 5.79-1.86c-1.443458-3.3090886-4.5584652-5.583235-8.15-5.95v6.09c.9753197.2554225 1.818211.8697331 2.36 1.72z"/><path id="Shape" d="m41 8h2c3.8659932 0 7 3.1340068 7 7v1.59l-1.29-1.3c-.2536586-.2536586-.623374-.3527235-.969878-.259878-.3465041.0928454-.6171546.3634959-.71.71-.0928455.346504.0062194.7162194.259878.969878l3 3c.1877666.1893127.4433625.2957983.71.2957983s.5222334-.1064856.71-.2957983l3-3c.3921221-.3921222.3921221-1.0278778 0-1.42-.3921222-.3921221-1.0278778-.3921221-1.42 0l-1.29 1.3v-1.59c0-4.9705627-4.0294373-9-9-9h-2c-.5522847 0-1 .44771525-1 1s.4477153 1 1 1z"/><path id="Shape" d="m15 48h-2c-3.86599325 0-7-3.1340068-7-7v-1.59l1.29 1.3c.1877666.1893127.44336246.2957983.71.2957983s.5222334-.1064856.71-.2957983c.18931265-.1877666.29579832-.4433625.29579832-.71s-.10648567-.5222334-.29579832-.71l-3-3c-.1877666-.1893127-.44336246-.2957983-.71-.2957983s-.5222334.1064856-.71.2957983l-3 3c-.39212214.3921222-.39212212 1.0278778.00000004 1.42.39212215.3921221 1.02787778.3921221 1.41999996 0l1.29-1.3v1.59c0 4.9705627 4.02943725 9 9 9h2c.5522847 0 1-.4477153 1-1s-.4477153-1-1-1z"/><path id="Shape" d="m55 56h-6.38c1.8126743-1.239635 3.3680005-2.8187326 4.58-4.65l-.84-.48c-.4804877-.2761424-.6461424-.8895123-.37-1.37s.8895123-.6461424 1.37-.37l.84.49c1.0436422-2.0614144 1.6561113-4.3139396 1.8-6.62h-1c-.5522847 0-1-.4477153-1-1s.4477153-1 1-1h1c-.1328111-2.301023-.7351714-4.5505157-1.77-6.61l-.82.48c-.4804877.2761424-1.0938576.1104877-1.37-.37s-.1104877-1.0938576.37-1.37l.83-.48c-1.2719342-1.9219917-2.9180083-3.5680658-4.84-4.84l-.48.83c-.1786328.3108211-.5095174.5027321-.8680127.5034421s-.6901375-.1898889-.87-.5-.1806201-.692621-.0019873-1.0034421l.48-.82c-2.0747689-1.0414275-4.3419506-1.6439668-6.66-1.77v.95c0 .5522847-.4477153 1-1 1s-1-.4477153-1-1v-.95c-2.301023.1328111-4.5505157.7351714-6.61 1.77l.48.82c.2761424.4804877.1104877 1.0938576-.37 1.37s-1.0938576.1104877-1.37-.37l-.48-.83c-1.9219917 1.2719342-3.5680658 2.9180083-4.84 4.84l.83.48c.4804877.2761424.6461424.8895123.37 1.37s-.8895123.6461424-1.37.37l-.82-.48c-1.0348286 2.0594843-1.6371889 4.308977-1.77 6.61h.95c.5522847 0 1 .4477153 1 1s-.4477153 1-1 1h-1c.1345298 2.3039351.7367626 4.5563538 1.77 6.62l.84-.49c.3108211-.1786328.693331-.1778752 1.0034421.0019873s.50071.5115047.5.87-.192621.6893799-.5034421.8680127l-.84.48c1.2208217 1.8340894 2.7865259 3.4133789 4.61 4.65h-6.38c-.5522847 0-1 .4477153-1 1s.4477153 1 1 1h32c.5522847 0 1-.4477153 1-1s-.4477153-1-1-1zm-28-14c0-6.627417 5.372583-12 12-12s12 5.372583 12 12-5.372583 12-12 12-12-5.372583-12-12z"/></g></g></svg>