<?xml version="1.0" encoding="iso-8859-1"?>
<!-- Generator: Adobe Illustrator 19.0.0, SVG Export Plug-In . SVG Version: 6.00 Build 0)  -->
<svg version="1.1" id="Layer_1" xmlns="http://www.w3.org/2000/svg" xmlns:xlink="http://www.w3.org/1999/xlink" x="0px" y="0px"
	 viewBox="0 0 512 512" style="enable-background:new 0 0 512 512;" xml:space="preserve">
<g>
	<g>
		<g>
			<path d="M89.825,381.754c-9.926,0-17.965,8.039-17.965,17.965c0,9.917,8.039,17.965,17.965,17.965
				c9.926,0,17.965-8.048,17.965-17.965C107.789,389.794,99.75,381.754,89.825,381.754z"/>
			<path d="M404.211,381.754c-9.926,0-17.965,8.039-17.965,17.965c0,9.917,8.039,17.965,17.965,17.965
				c9.926,0,17.965-8.048,17.965-17.965C422.175,389.794,414.136,381.754,404.211,381.754z"/>
			<path d="M504.171,234.939l-78.049-85.863c-5.686-6.261-13.806-9.845-22.268-9.845h-44.553V247.02h151.444
				C509.489,242.583,507.333,238.415,504.171,234.939z"/>
			<path d="M449.123,291.93H512v-26.947H356.774c-8.515,0-15.441-6.925-15.441-15.441V139.228h-20.211
				c-13.626,0-24.702,11.075-24.702,24.702v71.042L105.014,51.892c-1.671-1.59-3.898-2.488-6.207-2.488H35.93
				c-1.105,0-2.138,0.26-3.135,0.629c-0.296,0.117-0.557,0.26-0.844,0.395c-0.683,0.35-1.311,0.773-1.886,1.276
				c-0.234,0.207-0.458,0.377-0.665,0.602c-0.701,0.746-1.302,1.572-1.725,2.542c-0.018,0.045-0.027,0.099-0.045,0.144
				c-0.404,0.988-0.566,2.003-0.611,3.036c0,0.126-0.072,0.234-0.072,0.359v71.86c0,4.967,4.024,8.982,8.982,8.982
				c9.908,0,17.965,8.057,17.965,17.965s-8.057,17.965-17.965,17.965s-17.965-8.057-17.965-17.965c0-4.967-4.024-8.982-8.982-8.982
				S0,152.226,0,157.193c0,19.815,16.115,35.93,35.93,35.93s35.93-16.115,35.93-35.93c0-16.698-11.498-30.639-26.947-34.654V80.644
				l212.399,220.268H0v86.079c0,11.974,9.737,21.711,21.711,21.711h5.955c4.383,30.415,30.549,53.895,62.159,53.895
				c31.609,0,57.775-23.48,62.159-53.895h190.069c4.383,30.415,30.549,53.895,62.159,53.895c31.609,0,57.775-23.48,62.159-53.895
				h23.92c11.974,0,21.711-9.737,21.711-21.711v-77.096h-62.877c-4.958,0-8.982-4.015-8.982-8.982S444.164,291.93,449.123,291.93z
				 M89.825,444.632c-24.765,0-44.912-20.148-44.912-44.912s20.148-44.912,44.912-44.912c24.765,0,44.912,20.148,44.912,44.912
				S114.589,444.632,89.825,444.632z M449.123,399.719c0,24.765-20.148,44.912-44.912,44.912c-24.765,0-44.912-20.148-44.912-44.912
				s20.148-44.912,44.912-44.912C428.975,354.807,449.123,374.955,449.123,399.719z"/>
		</g>
	</g>
</g>
<g>
</g>
<g>
</g>
<g>
</g>
<g>
</g>
<g>
</g>
<g>
</g>
<g>
</g>
<g>
</g>
<g>
</g>
<g>
</g>
<g>
</g>
<g>
</g>
<g>
</g>
<g>
</g>
<g>
</g>
</svg>
