<svg id="icons" enable-background="new 0 0 64 64" height="512" viewBox="0 0 64 64" width="512" xmlns="http://www.w3.org/2000/svg"><g><g><path d="m63.002 48.006c-.553 0-1-.447-1-1v-12.995c0-.553.447-1 1-1s1 .447 1 1v12.995c0 .553-.447 1-1 1z"/></g><g><path d="m63.003 35.011c-.367 0-.721-.202-.896-.553l-5-10.002c-.247-.494-.047-1.095.447-1.342.493-.248 1.096-.047 1.342.447l5 10.002c.247.494.047 1.095-.447 1.342-.143.072-.296.106-.446.106z"/></g><g><path d="m63.002 45.004h-10.996c-.553 0-1-.447-1-1s.447-1 1-1h10.996c.553 0 1 .447 1 1s-.447 1-1 1z"/></g><g><path d="m63.002 48.006h-5.797c-.553 0-1-.447-1-1s.447-1 1-1h5.797c.553 0 1 .447 1 1s-.447 1-1 1z"/></g><g><path d="m43.005 42.001h-38.008c-.553 0-1-.447-1-1s.447-1 1-1h38.008c.553 0 1 .447 1 1s-.447 1-1 1z"/></g><g><path d="m58.002 25.009h-14.999c-.553 0-1-.448-1-1s.447-1 1-1h14.999c.553 0 1 .448 1 1s-.447 1-1 1z"/></g><g><path d="m43.005 50.002c-.552 0-1-.447-1-1l-.002-24.993c0-.552.447-1 1-1 .552 0 1 .448 1 1l.002 24.993c0 .552-.447 1-1 1z"/></g><g><path d="m58.023 35.011c-.005.001-.012.001-.02 0h-10.998c-.553 0-1-.447-1-1v-6c0-.552.447-1 1-1h7.997c.379 0 .725.214.895.553l2.921 5.839c.13.169.206.38.206.608-.001.552-.448 1-1.001 1zm-10.018-2h8.381l-2.002-4h-6.379z"/></g><g><path d="m52.006 57.002c-3.859 0-7-3.141-7-7s3.141-7 7-7 7 3.141 7 7-3.141 7-7 7zm0-12c-2.757 0-5 2.243-5 5s2.243 5 5 5 5-2.243 5-5-2.243-5-5-5z"/></g><g><path d="m27.007 57.002c-3.859 0-7-3.141-7-7s3.141-7 7-7 7 3.141 7 7-3.141 7-7 7zm0-12c-2.757 0-5 2.243-5 5s2.243 5 5 5 5-2.243 5-5-2.243-5-5-5z"/></g><g><path d="m13.013 57.002c-3.859 0-7-3.141-7-7s3.141-7 7-7 7 3.141 7 7-3.141 7-7 7zm0-12c-2.757 0-5 2.243-5 5s2.243 5 5 5 5-2.243 5-5-2.243-5-5-5z"/></g><g><path d="m13.013 53.002c-1.654 0-3-1.346-3-3s1.346-3 3-3 3 1.346 3 3-1.346 3-3 3zm0-4c-.552 0-1 .448-1 1s.448 1 1 1 1-.448 1-1-.449-1-1-1z"/></g><g><path d="m27.007 53.002c-1.654 0-3-1.346-3-3s1.346-3 3-3 3 1.346 3 3-1.346 3-3 3zm0-4c-.552 0-1 .448-1 1s.448 1 1 1 1-.448 1-1-.448-1-1-1z"/></g><g><path d="m52.004 53.002c-1.654 0-3-1.346-3-3s1.346-3 3-3 3 1.346 3 3-1.346 3-3 3zm0-4c-.552 0-1 .448-1 1s.448 1 1 1 1-.448 1-1-.448-1-1-1z"/></g><g><path d="m21.091 50.002h-2.154c-.553 0-1-.447-1-1s.447-1 1-1h2.154c.553 0 1 .447 1 1s-.447 1-1 1z"/></g><g><path d="m46.089 50.002h-13.166c-.553 0-1-.447-1-1s.447-1 1-1h13.166c.553 0 1 .447 1 1s-.447 1-1 1z"/></g><g><path d="m7.097 50.002h-5.103c-.553 0-1-.447-1-1s.447-1 1-1h5.103c.553 0 1 .447 1 1s-.448 1-1 1z"/></g><g><path d="m1.994 50.002c-.117 0-.235-.021-.352-.063-.517-.194-.778-.771-.585-1.288l3.003-8.001c.195-.518.771-.777 1.288-.585.517.194.778.771.585 1.288l-3.003 8.001c-.151.401-.532.648-.936.648z"/></g><g><path d="m47.999 38.009h-1c-.553 0-1-.447-1-1s.447-1 1-1h1c.553 0 1 .447 1 1s-.447 1-1 1z"/></g><g><g><path d="m35.992 42.034h-17.008c-.553 0-1-.447-1-1v-5.031c0-.553.447-1 1-1h17.008c.553 0 1 .447 1 1v5.031c0 .553-.447 1-1 1zm-16.008-2h15.008v-3.031h-15.008z"/></g><g><path d="m22.987 37.003c-.553 0-1-.447-1-1v-6.001c0-.552.447-1 1-1s1 .448 1 1v6.001c0 .553-.447 1-1 1z"/></g><g><path d="m31.989 37.003c-.553 0-1-.447-1-1v-7.001c0-.552.447-1 1-1s1 .448 1 1v7.001c0 .553-.447 1-1 1z"/></g><g><path d="m22.987 31.002c-.238 0-.478-.085-.669-.257l-19.993-18.002c-.41-.37-.443-1.002-.074-1.412s1.002-.442 1.412-.074l19.993 18.002c.41.37.443 1.002.074 1.412-.197.219-.469.331-.743.331z"/></g><g><path d="m31.988 30.002c-.203 0-.408-.062-.586-.19l-28.995-21.004c-.447-.324-.547-.949-.222-1.396.322-.447.947-.549 1.396-.224l28.995 21.004c.447.324.547.949.223 1.396-.195.27-.501.414-.811.414z"/></g><g><path d="m2.998 32.004c-.552 0-1-.448-1-1l-.004-23.006c0-.552.447-1 1-1 .552 0 1 .448 1 1l.004 23.006c0 .552-.447 1-1 1z"/></g></g><g><path d="m2.998 37.006c-1.654 0-3-1.347-3-3.001 0-.553.447-1 1-1s1 .447 1 1c0 .552.448 1.001 1 1.001s1-.449 1-1.001c0-1.343-1.438-2.102-1.453-2.109-.488-.253-.685-.854-.436-1.343.25-.49.845-.689 1.336-.442.104.052 2.553 1.307 2.553 3.895 0 1.653-1.346 3-3 3z"/></g><g><path d="m3.998 30.005h-2c-.553 0-1-.448-1-1s.447-1 1-1h2c.553 0 1 .448 1 1s-.447 1-1 1z"/></g><g><path d="m19.985 37.003c-.389 0-.759-.229-.92-.609l-5.987-14.094c-.217-.508.021-1.096.529-1.312.504-.214 1.096.021 1.311.529l5.987 14.095c.217.508-.021 1.095-.529 1.311-.127.055-.26.08-.391.08z"/></g><g><path d="m38.997 42.034c-.553 0-1-.447-1-1v-13.024c0-.552.447-1 1-1s1 .448 1 1v13.024c0 .553-.447 1-1 1z"/></g><g><path d="m42.995 29.01h-3.998c-.553 0-1-.448-1-1s.447-1 1-1h3.998c.553 0 1 .448 1 1s-.447 1-1 1z"/></g></g></svg>