<?xml version="1.0" encoding="iso-8859-1"?>
<!-- Generator: Adobe Illustrator 19.0.0, SVG Export Plug-In . SVG Version: 6.00 Build 0)  -->
<svg version="1.1" id="Capa_1" xmlns="http://www.w3.org/2000/svg" xmlns:xlink="http://www.w3.org/1999/xlink" x="0px" y="0px"
	 viewBox="0 0 512 512" style="enable-background:new 0 0 512 512;" xml:space="preserve">
<g>
	<g>
		<path d="M481.961,345.5c6.72-6.361,11-15.195,11.273-24.92c0.557-19.589-14.795-36.113-34.293-37.01
			c-0.287-0.022-0.577-0.034-0.873-0.034h-5.311c-0.188,0-0.375,0.005-0.561,0.016l-12.992,0.018v-71.286
			c43.829-17.938,72.791-60.678,72.791-108.545c0-41.968-22.658-80.999-59.131-101.859c-4.185-2.392-9.581-2.378-13.753,0.041
			c-4.205,2.439-6.716,7.006-6.716,12.178c-0.002,0.583-0.225,58.529-0.225,77.756c0,1.592-2.02,3.725-3.153,4.565
			c-0.318,0.206-0.43,0.304-0.739,0.562c-12.171,10.127-27.769,21.674-33.601,24.341c-5.91-2.652-21.76-14.4-34.106-24.722
			c-0.259-0.216-0.529-0.419-0.808-0.608c-0.025-0.017-2.52-2.094-2.52-6.007c0-20.011-0.205-75.307-0.207-75.826
			c0-5.444-2.41-9.962-6.613-12.396c-4.193-2.428-9.572-2.344-14.036,0.22c-36.36,20.884-58.948,59.873-58.948,101.754
			c0,37.468,17.747,71.794,46.477,93.542c-1.161-0.08-2.326-0.136-3.496-0.136c-8.569,0-16.61,3.333-22.63,9.372
			c-6.044,6.043-9.373,14.076-9.373,22.619v43.7c0,3.074,0.061,5.689,0.113,7.995c0.227,9.819,0.25,10.83-4.092,15.958
			l-30.529,23.524c-8.39,6.465-15.118,14.742-19.727,24.206h-11.867c-0.607-4.941-4.811-8.771-9.917-8.771h-33.681
			c-0.046-5.483-4.502-9.914-9.996-9.914H10.005c-5.523,0-10,4.477-10,10v146.241c0,5.523,4.477,10,10,10h158.717
			c5.493,0,9.949-4.431,9.996-9.914h33.684c4.593,0,8.453-3.101,9.626-7.32h9.652c9.052,22.221,30.801,37.16,55.328,37.16h169.83
			c0.645,0,1.29-0.017,1.919-0.05c0.001,0,0.001,0,0.002,0c18.909-0.991,34.13-16.353,34.654-34.978
			c0.29-10.6-3.991-20.271-11.091-27.069c0.189-0.181,0.378-0.365,0.563-0.55c6.799-6.816,10.543-15.864,10.543-25.476
			c0-10.161-4.29-19.445-11.189-26.042c6.899-6.595,11.189-15.876,11.189-26.033C493.429,361.508,489.024,352.113,481.961,345.5z
			 M139.722,472.076c-10.476,0-19-8.524-19-19c0-10.477,8.524-19,19-19c10.477,0,19,8.523,19,19S150.199,472.076,139.722,472.076z
			 M158.722,367.003H75.727c-5.522,0-10,4.477-10,10c0,5.523,4.478,10,10,10h82.996v32.032c-5.626-3.153-12.105-4.959-19-4.959
			c-21.505,0-38.999,17.495-38.999,38.999c0,6.895,1.806,13.374,4.959,19H20.005V345.834h138.718V367.003z M202.402,462.163h-23.681
			v-75.159h23.681V462.163z M202.402,367.004h-23.681v-11.256h23.681V367.004z M297.441,103.739
			c0-31.027,14.951-60.145,39.638-78.358c0.061,17.332,0.167,50.175,0.167,64.604c0,13.094,8.284,20.309,10.738,22.158
			c35.326,29.504,43.911,29.506,46.735,29.506c4.06,0,9.626-1.195,28.778-15.474c8.311-6.196,15.733-12.297,17.288-13.584
			c2.45-1.795,11.388-9.138,11.388-20.739c0-13.981,0.118-48.52,0.183-66.476c24.696,18.212,39.642,47.317,39.642,78.361
			c0,41.729-26.534,78.763-66.026,92.151c-4.155,1.409-6.906,5.361-6.785,9.747l0.011,0.356c0.004,0.107,0.01,0.214,0.01,0.322
			v77.283l-14.488,0.02v-86.925c0-5.523-4.477-10-10-10c-5.522,0-10,4.477-10,10v86.953l-14.488,0.02v-77.35h-0.003
			c0-0.124,0.006-0.248,0.011-0.371l0.009-0.276c0.136-4.397-2.618-8.366-6.784-9.778
			C323.974,182.502,297.441,145.469,297.441,103.739z M421.123,407.756h36.418c0.355,0.065,0.715,0.116,1.083,0.143
			c8.303,0.609,14.806,7.628,14.806,15.98c0,4.28-1.67,8.311-4.685,11.333c-2.725,2.717-6.319,4.368-10.121,4.646
			c-0.176,0.013-0.348,0.042-0.521,0.063h-36.98c-5.522,0-10,4.477-10,10c0,5.523,4.478,10,10,10h36.978
			c0.175,0.022,0.348,0.051,0.527,0.064c8.531,0.622,15.029,7.844,14.794,16.433c-0.233,8.276-7.134,15.112-15.71,15.561
			c-0.286,0.015-0.58,0.022-0.874,0.022h-169.83c-18.089,0-33.903-12.206-38.46-29.683c-1.148-4.404-5.126-7.477-9.677-7.477h-16.47
			v-90.323h18.39c4.203,0,7.958-2.629,9.396-6.579c3.148-8.647,8.657-16.18,15.931-21.785l31.356-24.156
			c0.541-0.417,1.037-0.888,1.483-1.406c9.575-11.147,9.86-17.673,9.571-30.219c-0.051-2.198-0.108-4.69-0.108-7.534v-43.7
			c0-3.2,1.248-6.21,3.525-8.488c2.252-2.259,5.263-3.503,8.478-3.503c8.418,0,16.483,3.431,22.128,9.414
			c4.668,4.947,7.337,11.199,7.699,17.872c0.027,0.506,0.041,1.011,0.043,1.512c0,0.044,0.003,0.087,0.002,0.131
			c0,0.537-0.015,1.069-0.045,1.592c0,0.009,0,0.018-0.001,0.027c-0.011,0.193-0.017,0.386-0.017,0.58v45.408
			c0,2.655,1.056,5.2,2.934,7.076c1.875,1.872,4.417,2.924,7.066,2.924c0.005,0,0.01,0,0.014,0l34.389-0.048
			c0.028,0,0.056,0.004,0.084,0.004c0.03,0,0.059-0.004,0.089-0.004l34.412-0.048c0,0,0.001,0,0.002,0l25.333-0.035
			c0.163,0,0.324-0.004,0.484-0.012h2.681c0.046,0.003,0.092,0.004,0.137,0.006c8.734,0.312,15.637,7.701,15.388,16.473
			c-0.233,8.278-7.124,15.108-15.693,15.549c-0.296,0.015-0.583,0.022-0.878,0.022c-0.017,0-0.032,0.002-0.049,0.003h-35.5
			c-5.522,0-10,4.477-10,10c0,5.523,4.478,10,10,10h35.521c0.124,0.003,0.291,0.007,0.481,0.012c0.487,0.11,0.987,0.186,1.499,0.224
			c8.303,0.609,14.806,7.628,14.806,15.98c-0.001,8.299-6.436,15.276-14.675,15.95h-37.633c-5.522,0-10,4.477-10,10
			C411.123,403.279,415.601,407.756,421.123,407.756z"/>
	</g>
</g>
<g>
	<g>
		<path d="M404.518,159.738c-0.12-0.63-0.319-1.26-0.569-1.87c-0.25-0.6-0.561-1.18-0.92-1.73c-0.36-0.54-0.78-1.05-1.24-1.52
			c-2.32-2.32-5.78-3.38-9.021-2.73c-0.64,0.13-1.27,0.32-1.87,0.57c-0.609,0.25-1.189,0.56-1.73,0.92
			c-0.55,0.37-1.06,0.78-1.52,1.24c-0.46,0.47-0.88,0.98-1.239,1.52c-0.36,0.55-0.67,1.13-0.92,1.73c-0.25,0.61-0.45,1.24-0.57,1.87
			c-0.13,0.65-0.2,1.31-0.2,1.96c0,2.63,1.07,5.21,2.93,7.07c0.459,0.46,0.97,0.879,1.519,1.24c0.54,0.36,1.12,0.67,1.73,0.92
			c0.601,0.25,1.23,0.44,1.87,0.57c0.641,0.13,1.3,0.2,1.95,0.2c2.63,0,5.21-1.07,7.07-2.93c1.859-1.86,2.93-4.44,2.93-7.07
			C404.718,161.048,404.648,160.388,404.518,159.738z"/>
	</g>
</g>
<g>
	<g>
		<path d="M50.534,375.054c-0.13-0.64-0.32-1.27-0.57-1.87c-0.25-0.61-0.561-1.19-0.92-1.73c-0.37-0.55-0.79-1.06-1.25-1.52
			c-0.46-0.46-0.971-0.88-1.521-1.24c-0.54-0.36-1.12-0.67-1.72-0.92c-0.61-0.25-1.24-0.45-1.87-0.58c-1.29-0.25-2.62-0.25-3.91,0
			c-0.64,0.13-1.27,0.33-1.87,0.58c-0.609,0.25-1.189,0.56-1.729,0.92c-0.55,0.36-1.061,0.78-1.521,1.24
			c-0.46,0.46-0.88,0.97-1.239,1.52c-0.36,0.54-0.67,1.12-0.92,1.73c-0.25,0.6-0.44,1.23-0.57,1.87c-0.13,0.64-0.2,1.3-0.2,1.95
			s0.07,1.31,0.2,1.95s0.32,1.27,0.57,1.87c0.25,0.61,0.56,1.19,0.92,1.73c0.359,0.55,0.779,1.06,1.239,1.52
			c0.46,0.46,0.971,0.88,1.521,1.24c0.54,0.36,1.12,0.67,1.729,0.92c0.601,0.25,1.23,0.45,1.87,0.57c0.641,0.13,1.3,0.2,1.95,0.2
			s1.311-0.07,1.96-0.2c0.63-0.12,1.26-0.32,1.87-0.57c0.6-0.25,1.18-0.56,1.72-0.92c0.55-0.36,1.061-0.78,1.521-1.24
			c0.46-0.46,0.88-0.97,1.25-1.52c0.359-0.54,0.67-1.12,0.92-1.73c0.25-0.6,0.439-1.23,0.57-1.87c0.13-0.64,0.189-1.3,0.189-1.95
			C50.723,376.354,50.664,375.694,50.534,375.054z"/>
	</g>
</g>
<g>
</g>
<g>
</g>
<g>
</g>
<g>
</g>
<g>
</g>
<g>
</g>
<g>
</g>
<g>
</g>
<g>
</g>
<g>
</g>
<g>
</g>
<g>
</g>
<g>
</g>
<g>
</g>
<g>
</g>
</svg>
